<svg width="40" height="40" viewBox="0 0 40 40" fill="none" xmlns="http://www.w3.org/2000/svg">
<path d="M34.1427 5.86C30.3634 2.08 25.3429 0 20.0021 0C8.97208 0 0 8.972 0 20C0 31.028 8.97208 40 20.0021 40C25.3429 40 30.3674 37.92 34.1427 34.14C37.9221 30.36 40 25.34 40 20C40 14.66 37.9221 9.636 34.1427 5.86ZM20.0021 38.616C9.73677 38.616 1.38525 30.264 1.38525 20C1.38525 9.736 9.73677 1.384 20.0021 1.384C30.2672 1.384 38.6187 9.736 38.6187 20C38.6187 30.264 30.2672 38.616 20.0021 38.616Z" fill="#040506"/>
<path d="M20.002 38.1654C9.89839 38.1654 1.67839 29.9449 1.67839 19.8425C1.67839 9.74019 9.89839 1.51971 20.002 1.51971C30.1055 1.51971 38.3255 9.74019 38.3255 19.8425C38.3255 29.9449 30.1055 38.1654 20.002 38.1654Z" fill="#040506"/>
<path d="M26.8933 20.481C25.6338 19.3553 23.9846 18.6035 22.3867 17.8753L22.3749 17.8714C19.5568 16.5844 17.1206 15.4706 17.2938 12.8375C17.3686 11.8338 18.0966 11.2277 18.6949 10.901C19.368 10.531 20.2613 10.3106 21.088 10.3106C21.1862 10.3106 21.2846 10.3146 21.3791 10.3185C23.784 10.4799 25.681 11.4993 27.5349 13.6168L27.6451 13.7466L27.7749 13.6364L28.4991 13.0067L28.6291 12.8926L28.5149 12.7627C26.4486 10.3933 24.2051 9.20072 21.4618 9.01573C21.3437 9.00394 21.2177 9 21.0801 9C20.9974 9 20.9069 9 20.8124 9.00394H20.6943C18.8957 9.00394 16.9237 9.59432 15.4242 10.5861C13.6334 11.7708 12.6297 13.4003 12.6022 15.1754C12.5313 19.4929 16.0618 20.9454 19.175 22.2323L19.1829 22.2363L19.2144 22.2481C21.9695 23.3895 24.3469 24.3734 24.2957 27.0104C24.272 28.7501 21.7845 29.7104 20.0765 29.7104H20.0056H19.8363V29.7144C17.2898 29.6397 15.0149 28.5416 13.0745 26.4594L12.9564 26.3336L12.8305 26.4476L12.1259 27.101L12 27.2191L12.1181 27.3451C14.3222 29.7183 17.0418 30.9936 19.9859 31.029H20.1196C22.0207 31.029 24.087 30.5174 25.6456 29.6555C27.5979 28.5889 28.7354 27.034 28.8533 25.2788C28.9872 23.3501 28.3456 21.7797 26.8933 20.481ZM17.7543 16.726C18.876 17.6865 20.3952 18.3751 21.8632 19.0403L21.8908 19.0522C23.4454 19.7685 24.9176 20.4455 25.9842 21.3862C27.1648 22.4252 27.6646 23.6296 27.5585 25.1764C27.4601 26.7074 26.3226 27.7307 25.2875 28.3487C25.4883 27.9394 25.5983 27.4947 25.6102 27.0222C25.6338 25.4322 25.0237 24.161 23.7407 23.1298C22.619 22.2284 21.1313 21.6183 19.6906 21.0241C16.6955 19.7922 13.8656 18.6271 13.9168 15.1872C13.9325 13.8647 14.7275 12.6131 16.1563 11.6646C16.2035 11.6331 16.2508 11.6016 16.302 11.5701C16.1326 11.9401 16.0382 12.3258 16.0146 12.7312C15.9004 14.3252 16.4711 15.6319 17.7543 16.726Z" fill="white"/>
<path fill-rule="evenodd" clip-rule="evenodd" d="M33.3075 6.54502C29.7313 2.9682 24.9807 1 19.927 1C16.9604 1 14.1514 1.68579 11.6498 2.90714C10.5335 1.80587 9.00031 1.12617 7.30834 1.12617C3.89401 1.12617 1.12617 3.89401 1.12617 7.30834C1.12617 9.0002 1.80579 10.5333 2.90693 11.6496C1.6857 14.1508 1 16.9594 1 19.925C1 30.3602 9.48983 38.85 19.927 38.85C24.9807 38.85 29.7351 36.8818 33.3075 33.305C36.8838 29.7281 38.85 24.978 38.85 19.925C38.85 14.872 36.8838 10.1181 33.3075 6.54502ZM2.31079 19.925C2.31079 29.6373 10.2134 37.5404 19.927 37.5404C29.6403 37.5404 37.543 29.6373 37.543 19.925C37.543 10.2127 29.6403 2.30961 19.927 2.30961C17.2753 2.30961 14.7589 2.89848 12.5011 3.9523C13.1271 4.91881 13.4905 6.07113 13.4905 7.30834C13.4905 10.7227 10.7227 13.4905 7.30834 13.4905C6.07129 13.4905 4.91913 13.1272 3.95271 12.5014C2.89937 14.7586 2.31079 17.2744 2.31079 19.925Z" fill="#1B1B1B" stroke="white" stroke-width="0.5"/>
<path opacity="0.5" d="M9.47035 7.32808C9.05003 6.95276 8.49965 6.70209 7.96638 6.45931L7.96243 6.458C7.02195 6.02887 6.20888 5.65748 6.26668 4.77953C6.29164 4.44488 6.53463 4.24277 6.73428 4.13386C6.9589 4.01049 7.25707 3.93701 7.53291 3.93701C7.56575 3.93701 7.59858 3.93832 7.63011 3.93962C8.43268 3.99343 9.06578 4.33332 9.68446 5.03937L9.72123 5.08268L9.76458 5.04592L10.0063 4.83595L10.0496 4.79789L10.0115 4.75458C9.32192 3.96457 8.57321 3.56693 7.6577 3.50524C7.61828 3.50131 7.57625 3.5 7.53028 3.5C7.50269 3.5 7.47249 3.5 7.44096 3.50131H7.40156C6.80128 3.50131 6.14321 3.69816 5.64276 4.02887C5.0451 4.42387 4.71016 4.96718 4.70096 5.55906C4.67732 6.99868 5.85554 7.48293 6.89454 7.91206L6.89717 7.91339L6.90767 7.91732C7.82713 8.29789 8.6205 8.62598 8.60343 9.50524C8.59554 10.0853 7.7654 10.4055 7.19534 10.4055H7.11521V10.4068C6.26537 10.3819 5.50616 10.0157 4.85858 9.32151L4.81918 9.27953L4.77715 9.31757L4.54203 9.53543L4.5 9.5748L4.5394 9.61679C5.27498 10.4081 6.18261 10.8333 7.16512 10.8451H7.20978C7.84422 10.8451 8.53381 10.6745 9.05397 10.3871C9.70546 10.0315 10.0851 9.51312 10.1245 8.92781C10.1691 8.28477 9.95504 7.76115 9.47035 7.32808ZM6.42036 6.07611C6.79471 6.39631 7.30173 6.62598 7.79167 6.84776L7.80087 6.8517C8.3197 7.09055 8.81096 7.31627 9.16693 7.62992C9.56098 7.97638 9.72779 8.37795 9.69233 8.8937C9.6595 9.40419 9.27989 9.7454 8.93444 9.95143C9.00142 9.81496 9.0382 9.66666 9.04214 9.50918C9.05003 8.97899 8.84643 8.55512 8.41822 8.21128C8.04387 7.91076 7.54735 7.70734 7.06661 7.50918C6.06702 7.09843 5.1226 6.70997 5.13969 5.56299C5.14493 5.12205 5.41027 4.70472 5.88707 4.38844C5.90283 4.37795 5.9186 4.36745 5.93567 4.35695C5.8792 4.48032 5.84767 4.60891 5.83978 4.74409C5.8017 5.27559 5.99216 5.71128 6.42036 6.07611Z" fill="white"/>
</svg>
