<svg width="40" height="40" viewBox="0 0 40 40" fill="none" xmlns="http://www.w3.org/2000/svg">
<g clip-path="url(#clip0_159_305)">
<path d="M21.0726 38.8549C31.5259 38.8549 40 30.3808 40 19.9274C40 9.4741 31.5259 1 21.0726 1C10.6192 1 2.14513 9.4741 2.14513 19.9274C2.14513 30.3808 10.6192 38.8549 21.0726 38.8549Z" fill="url(#paint0_linear_159_305)"/>
<path d="M21.0726 37.4353C30.7419 37.4353 38.5805 29.5968 38.5805 19.9274C38.5805 10.2581 30.7419 2.41956 21.0726 2.41956C11.4032 2.41956 3.56468 10.2581 3.56468 19.9274C3.56468 29.5968 11.4032 37.4353 21.0726 37.4353Z" fill="black"/>
<path d="M6.13565 14.6908C9.52427 14.6908 12.2713 11.9438 12.2713 8.5552C12.2713 5.16658 9.52427 2.41956 6.13565 2.41956C2.74702 2.41956 0 5.16658 0 8.5552C0 11.9438 2.74702 14.6908 6.13565 14.6908Z" fill="url(#paint1_linear_159_305)"/>
<g filter="url(#filter0_i_159_305)">
<path d="M4.8331 3.62797C4.51572 5.13618 5.0225 6.67832 6.85279 8.18164C9.21872 10.1249 9.33414 10.9081 8.29544 13.1124C10.2574 12.2423 11.9598 9.83489 10.9499 6.64441C9.85348 4.09203 7.19903 2.93187 4.8331 3.62797Z" fill="url(#paint2_linear_159_305)"/>
</g>
<g filter="url(#filter1_i_159_305)">
<path d="M7.72107 13.324C8.04211 11.8099 7.52949 10.2619 5.67816 8.7527C3.28501 6.80191 3.16829 6.01576 4.21892 3.80292C2.23438 4.67642 0.512497 7.09308 1.53395 10.2959C2.64296 12.8581 5.32794 14.0227 7.72107 13.324Z" fill="#070707"/>
<path d="M5.67322 8.75882C6.59814 9.51279 7.18817 10.2761 7.50701 11.0395C7.82515 11.8013 7.87341 12.5636 7.71436 13.3177C5.32635 14.0125 2.64823 12.8498 1.54139 10.2931C0.524898 7.10522 2.2297 4.69793 4.20275 3.81873C3.68385 4.91459 3.45288 5.66226 3.64956 6.37816C3.84729 7.09787 4.47679 7.78352 5.67322 8.75882Z" stroke="white" stroke-opacity="0.1" stroke-width="0.216667"/>
</g>
<path d="M4.83597 3.57855C6.58969 3.92848 7.69749 4.4267 9.06288 6.2955C10.5154 8.8831 9.96345 11.5138 8.35115 13.0376C9.28317 10.6457 9.22266 10.1769 6.97121 8.23619C4.71976 6.2955 4.5849 4.82887 4.83597 3.57855Z" fill="url(#paint3_linear_159_305)" fill-opacity="0.8"/>
<path d="M7.64427 13.262C5.88578 12.912 4.77499 12.4138 3.40591 10.545C1.94942 7.95744 2.54301 5.32671 4.15969 3.80292C3.22515 6.19485 3.24569 6.66362 5.50323 8.60432C7.76076 10.545 7.89597 12.0116 7.64427 13.262Z" fill="url(#paint4_linear_159_305)" fill-opacity="0.5"/>
<g filter="url(#filter2_d_159_305)">
<path d="M27.1496 20.668C25.8685 19.524 24.191 18.76 22.5655 18.02L22.5535 18.016C19.6869 16.708 17.2087 15.576 17.3848 12.9C17.4609 11.88 18.2016 11.264 18.8101 10.932C19.4947 10.556 20.4036 10.332 21.2443 10.332C21.3444 10.332 21.4445 10.336 21.5406 10.34C23.9868 10.504 25.9165 11.54 27.8022 13.692L27.9143 13.824L28.0464 13.712L28.7831 13.072L28.9152 12.956L28.7991 12.824C26.6972 10.416 24.4152 9.204 21.6247 9.016C21.5046 9.004 21.3764 9 21.2363 9C21.1522 9 21.0602 9 20.9641 9.004H20.844C19.0143 9.004 17.0085 9.604 15.4831 10.612C13.6615 11.816 12.6406 13.472 12.6126 15.276C12.5405 19.664 16.1317 21.14 19.2986 22.448L19.3066 22.452L19.3386 22.464C22.1411 23.624 24.5593 24.624 24.5073 27.304C24.4832 29.072 21.953 30.048 20.2154 30.048H20.1433H19.9712V30.052C17.3808 29.976 15.0668 28.86 13.093 26.744L12.9729 26.616L12.8448 26.732L12.1281 27.396L12 27.516L12.1201 27.644C14.3621 30.056 17.1286 31.352 20.1233 31.388H20.2594C22.1932 31.388 24.2951 30.868 25.8805 29.992C27.8663 28.908 29.0233 27.328 29.1434 25.544C29.2795 23.584 28.627 21.988 27.1496 20.668ZM17.8533 16.852C18.9943 17.828 20.5397 18.528 22.033 19.204L22.0611 19.216C23.6425 19.944 25.1398 20.632 26.2248 21.588C27.4259 22.644 27.9343 23.868 27.8262 25.44C27.7262 26.996 26.5691 28.036 25.5162 28.664C25.7203 28.248 25.8324 27.796 25.8445 27.316C25.8685 25.7 25.2479 24.408 23.9427 23.36C22.8017 22.444 21.2884 21.824 19.823 21.22C16.7763 19.968 13.8977 18.784 13.9498 15.288C13.9658 13.944 14.7745 12.672 16.2278 11.708C16.2758 11.676 16.3239 11.644 16.3759 11.612C16.2038 11.988 16.1077 12.38 16.0837 12.792C15.9676 14.412 16.5481 15.74 17.8533 16.852Z" fill="white"/>
<path d="M22.4924 18.1713L22.4843 18.1676L22.4726 18.1623C21.0498 17.5131 19.6961 16.8954 18.7227 16.1001C17.7363 15.2941 17.1261 14.2938 17.2185 12.8891L17.2186 12.8876C17.301 11.7835 18.1027 11.1281 18.7301 10.7858C19.4411 10.3953 20.3778 10.1653 21.2443 10.1653C21.3483 10.1653 21.4517 10.1695 21.5475 10.1735L21.5517 10.1737L21.5517 10.1737C24.0495 10.3412 26.0182 11.4031 27.9276 13.5822L27.9293 13.5841L27.9293 13.5841L27.9336 13.5892L27.9371 13.5862L27.9387 13.5849L28.6731 12.9468L28.6738 12.9462L28.6799 12.9408L28.674 12.9341L28.6736 12.9336C26.5962 10.5537 24.3534 9.36688 21.6135 9.18229L21.6081 9.18193L21.6081 9.18184C21.4957 9.17061 21.3736 9.16667 21.2363 9.16667C21.1518 9.16667 21.0631 9.16669 20.971 9.17052L20.9641 9.17081V9.17067H20.844C19.0468 9.17067 17.073 9.76116 15.575 10.751M22.4924 18.1713L24.5073 27.304M22.4924 18.1713L22.5008 18.1741L22.4924 18.1713ZM15.575 10.751L15.4838 10.613L15.575 10.751ZM15.575 10.751C13.7882 11.9321 12.8062 13.5418 12.7792 15.2786L12.7792 15.2787C12.7441 17.4169 13.5974 18.8369 14.8483 19.8895C16.1089 20.9503 17.7717 21.637 19.3599 22.293L19.3622 22.294L19.3733 22.2985L19.3731 22.2989L19.3732 22.299L19.3971 22.3079L19.4024 22.3099L19.4023 22.31L19.4208 22.3176C20.8089 22.8922 22.1298 23.4389 23.0951 24.1819C24.0756 24.9367 24.701 25.9032 24.6739 27.3067M24.6739 27.3067C24.6739 27.3069 24.6739 27.3071 24.6739 27.3072L24.5073 27.304M24.6739 27.3067C24.6739 27.3066 24.6739 27.3064 24.6739 27.3063L24.5073 27.304M24.6739 27.3067C24.6605 28.2792 23.9582 29.0085 23.0837 29.4853C22.205 29.9645 21.1104 30.2147 20.2154 30.2147H20.1433H20.1378M24.5073 27.304C24.4832 29.072 21.953 30.048 20.2154 30.048H20.1433H20.1378V30.052V30.2147M20.1378 30.2147H19.9712V30.052M20.1378 30.2147L19.9713 30.048L19.9712 30.052M19.9712 30.052C19.9333 30.0509 19.8955 30.0496 19.8577 30.048C19.84 30.0473 19.8222 30.0465 19.8045 30.0457V30.048V30.052H19.9712ZM26.3349 21.4629C25.2346 20.4934 23.7241 19.7981 22.1594 19.0778L22.1307 19.0646L22.1308 19.0645L22.1267 19.0628L22.1002 19.0515C20.6018 18.3732 19.0808 17.6826 17.9616 16.7253L17.9614 16.7251C16.6937 15.6451 16.1379 14.3675 16.2499 12.8039L16.2501 12.8017C16.2729 12.41 16.3641 12.0383 16.5275 11.6814L16.7557 11.1828L16.2886 11.47C16.234 11.5036 16.1838 11.537 16.1364 11.5686L16.1357 11.5691C16.1356 11.5691 16.1356 11.5692 16.1355 11.5692C14.6516 12.5536 13.8001 13.8708 13.7831 15.2858C13.7563 17.0909 14.4908 18.3073 15.6192 19.2248C16.733 20.1304 18.2343 20.7473 19.7471 21.369L19.7595 21.3741L19.7597 21.3742L19.7833 21.3839C21.2468 21.9871 22.7257 22.5967 23.8384 23.49C25.1049 24.5069 25.7008 25.7505 25.6778 27.3127C25.6663 27.7685 25.5599 28.1966 25.3665 28.5906L25.119 29.0949L25.6015 28.8071C26.669 28.1705 27.8869 27.0909 27.9925 25.4511C28.1042 23.8266 27.5742 22.5525 26.3349 21.4629ZM26.3349 21.4629C26.3349 21.4629 26.3349 21.4628 26.3348 21.4628L26.2248 21.588L26.335 21.4629C26.335 21.4629 26.3349 21.4629 26.3349 21.4629ZM12.1216 27.4021L12 27.516L12.114 27.6375L12.2357 27.5236L12.1216 27.4021ZM12.1281 27.396L12.2414 27.5183L12.2421 27.5176L12.1281 27.396ZM12.8448 26.732L12.9566 26.8555L12.958 26.8543L12.8448 26.732ZM12.8513 26.73L12.9634 26.8494L13.0847 26.7395L12.9729 26.616L12.8513 26.73ZM13.093 26.744L12.9711 26.8577C12.9712 26.8577 12.9712 26.8578 12.9713 26.8579L12.9714 26.858L13.093 26.744ZM20.1242 31.2213H20.1233V31.388L20.1253 31.2213C20.1249 31.2213 20.1246 31.2213 20.1242 31.2213ZM27.0386 20.7923L27.1489 20.6688L27.0386 20.7923C27.0386 20.7923 27.0386 20.7923 27.0386 20.7923ZM22.5655 18.02L22.5158 18.1292L22.4964 18.1717C22.498 18.1724 22.4995 18.1731 22.501 18.1737C22.5021 18.1743 22.5033 18.1748 22.5045 18.1753L22.5128 18.1781L22.5655 18.02Z" stroke="black" stroke-width="0.333333"/>
</g>
</g>
<defs>
<filter id="filter0_i_159_305" x="4.74472" y="3.42902" width="6.50544" height="13.15" filterUnits="userSpaceOnUse" color-interpolation-filters="sRGB">
<feFlood flood-opacity="0" result="BackgroundImageFix"/>
<feBlend mode="normal" in="SourceGraphic" in2="BackgroundImageFix" result="shape"/>
<feColorMatrix in="SourceAlpha" type="matrix" values="0 0 0 0 0 0 0 0 0 0 0 0 0 0 0 0 0 0 127 0" result="hardAlpha"/>
<feOffset dy="4.33333"/>
<feGaussianBlur stdDeviation="1.73333"/>
<feComposite in2="hardAlpha" operator="arithmetic" k2="-1" k3="1"/>
<feColorMatrix type="matrix" values="0 0 0 0 0 0 0 0 0 0 0 0 0 0 0 0 0 0 0.8 0"/>
<feBlend mode="normal" in2="shape" result="effect1_innerShadow_159_305"/>
</filter>
<filter id="filter1_i_159_305" x="1.12969" y="3.60071" width="6.78126" height="13.4901" filterUnits="userSpaceOnUse" color-interpolation-filters="sRGB">
<feFlood flood-opacity="0" result="BackgroundImageFix"/>
<feBlend mode="normal" in="SourceGraphic" in2="BackgroundImageFix" result="shape"/>
<feColorMatrix in="SourceAlpha" type="matrix" values="0 0 0 0 0 0 0 0 0 0 0 0 0 0 0 0 0 0 127 0" result="hardAlpha"/>
<feOffset dy="4.33333"/>
<feGaussianBlur stdDeviation="1.73333"/>
<feComposite in2="hardAlpha" operator="arithmetic" k2="-1" k3="1"/>
<feColorMatrix type="matrix" values="0 0 0 0 0 0 0 0 0 0 0 0 0 0 0 0 0 0 0.8 0"/>
<feBlend mode="normal" in2="shape" result="effect1_innerShadow_159_305"/>
</filter>
<filter id="filter2_d_159_305" x="10.6667" y="9" width="19.8277" height="25.0547" filterUnits="userSpaceOnUse" color-interpolation-filters="sRGB">
<feFlood flood-opacity="0" result="BackgroundImageFix"/>
<feColorMatrix in="SourceAlpha" type="matrix" values="0 0 0 0 0 0 0 0 0 0 0 0 0 0 0 0 0 0 127 0" result="hardAlpha"/>
<feOffset dy="1.33333"/>
<feGaussianBlur stdDeviation="0.666667"/>
<feComposite in2="hardAlpha" operator="out"/>
<feColorMatrix type="matrix" values="0 0 0 0 0 0 0 0 0 0 0 0 0 0 0 0 0 0 0.25 0"/>
<feBlend mode="normal" in2="BackgroundImageFix" result="effect1_dropShadow_159_305"/>
<feBlend mode="normal" in="SourceGraphic" in2="effect1_dropShadow_159_305" result="shape"/>
</filter>
<linearGradient id="paint0_linear_159_305" x1="21.0726" y1="1" x2="21.0726" y2="38.8549" gradientUnits="userSpaceOnUse">
<stop stop-color="#B977FF"/>
<stop offset="1" stop-color="#606DC8"/>
</linearGradient>
<linearGradient id="paint1_linear_159_305" x1="2.42902" y1="2.41956" x2="8.99054" y2="14.6908" gradientUnits="userSpaceOnUse">
<stop stop-color="#B977FF"/>
<stop offset="1" stop-color="#606DC8"/>
</linearGradient>
<linearGradient id="paint2_linear_159_305" x1="7.99742" y1="3.42902" x2="7.99742" y2="13.1124" gradientUnits="userSpaceOnUse">
<stop stop-color="#747474"/>
<stop offset="0.211458" stop-color="#4F4E4E"/>
<stop offset="1" stop-color="#020202"/>
</linearGradient>
<linearGradient id="paint3_linear_159_305" x1="7.82509" y1="5.18225" x2="8.26285" y2="12.6567" gradientUnits="userSpaceOnUse">
<stop/>
<stop offset="1" stop-color="#0E0E0E"/>
</linearGradient>
<linearGradient id="paint4_linear_159_305" x1="4.64704" y1="11.6583" x2="4.21045" y2="4.18365" gradientUnits="userSpaceOnUse">
<stop stop-color="#444444"/>
<stop offset="0.789583" stop-color="#A2A2A2"/>
<stop offset="1" stop-color="#ADADAD"/>
</linearGradient>
<clipPath id="clip0_159_305">
<rect width="40" height="37.8549" fill="white" transform="translate(0 1)"/>
</clipPath>
</defs>
</svg>
